<?xml version="1.0" standalone="no"?>
<!DOCTYPE svg PUBLIC "-//W3C//DTD SVG 20010904//EN"
 "http://www.w3.org/TR/2001/REC-SVG-20010904/DTD/svg10.dtd">
<svg version="1.0" xmlns="http://www.w3.org/2000/svg"
 width="840.000000pt" height="818.000000pt" viewBox="0 0 840.000000 818.000000"
 preserveAspectRatio="xMidYMid meet">

<g transform="translate(0.000000,818.000000) scale(0.100000,-0.100000)"
fill="#000000" stroke="none">
<path d="M2821 7730 c-220 -84 -442 -229 -644 -422 -22 -21 -41 -38 -43 -38
-2 0 -4 61 -4 135 0 74 -4 135 -9 135 -11 0 -46 -54 -108 -165 -89 -162 -179
-319 -221 -388 -37 -59 -42 -75 -42 -125 0 -119 75 -345 137 -414 9 -10 12
-18 7 -18 -10 0 -112 70 -170 117 -23 18 -45 33 -49 33 -13 0 3 -94 30 -176
57 -170 136 -290 230 -351 28 -18 73 -49 100 -70 37 -28 63 -39 100 -43 40 -4
50 -9 53 -25 2 -11 15 -58 29 -104 15 -50 21 -87 16 -92 -6 -6 -33 1 -68 17
-49 23 -73 27 -144 27 -77 1 -93 -3 -146 -30 -79 -41 -122 -82 -180 -172 -145
-225 -274 -626 -384 -1201 -22 -115 -42 -237 -46 -278 -1 -15 -9 -76 -18 -137
-53 -353 -88 -629 -86 -685 1 -46 8 -7 34 195 67 520 161 1036 250 1380 74
285 160 527 232 654 62 109 185 220 267 242 90 24 242 -17 282 -76 11 -16 32
-41 47 -56 16 -16 32 -43 37 -61 5 -18 39 -204 75 -413 129 -745 196 -1036
451 -1937 24 -87 44 -161 44 -167 0 -5 -21 -12 -46 -16 -69 -10 -224 -94 -354
-191 -155 -117 -169 -122 -176 -72 -2 13 -10 46 -18 73 -40 136 -58 204 -66
240 -5 22 -16 69 -25 105 -61 241 -99 478 -245 1504 -33 231 -62 422 -65 424
-16 16 16 -299 69 -679 l23 -166 -166 -169 c-312 -317 -493 -565 -602 -829
-51 -123 -69 -192 -69 -270 0 -97 -3 -101 -73 -115 -188 -38 -260 -81 -333
-202 -102 -167 -100 -457 3 -577 85 -100 220 -176 388 -220 l100 -26 3 -35 c5
-71 10 -78 75 -109 101 -48 329 -75 418 -51 42 12 49 27 49 108 0 40 3 52 16
52 8 0 81 -9 162 -20 81 -11 296 -36 477 -55 384 -42 524 -60 884 -115 145
-22 265 -40 267 -40 2 0 4 -22 4 -50 0 -41 4 -52 23 -65 41 -26 140 -56 210
-62 l67 -6 0 -39 c0 -24 -6 -43 -17 -53 -10 -7 -28 -22 -40 -32 -21 -18 -26
-37 -24 -100 1 -36 58 -112 99 -130 18 -8 86 -12 193 -13 l167 0 6 25 c4 14
10 25 15 25 12 0 25 175 15 192 -5 7 -9 17 -9 23 0 16 -52 23 -187 24 l-128 1
0 40 c0 38 1 40 33 40 37 0 104 17 111 28 2 4 8 35 12 69 l6 62 -56 25 c-31
14 -83 30 -116 37 l-60 12 0 46 c0 57 6 67 47 75 39 9 41 17 48 182 3 71 8
152 11 181 6 56 7 55 -61 65 -16 3 -20 11 -20 38 l0 35 44 -4 c73 -5 180 10
202 28 24 19 40 87 28 120 -5 12 -28 30 -51 41 -26 11 -33 18 -18 15 222 -40
244 -46 291 -76 99 -63 172 -168 185 -266 8 -61 -25 -201 -66 -283 -69 -137
-221 -252 -362 -275 -65 -10 -45 -28 23 -22 188 17 376 210 424 436 30 143 14
230 -59 323 -87 110 -183 154 -438 204 l-88 17 0 63 c0 34 3 65 7 67 5 2 46
-2 93 -9 103 -16 220 -18 220 -4 0 6 -2 10 -5 10 -49 0 -302 34 -312 41 -22
19 -30 1 -37 -81 -4 -45 -11 -78 -17 -75 -5 4 -9 46 -9 96 0 76 -3 92 -20 109
-25 25 -25 56 0 122 11 28 17 54 15 56 -11 11 -35 -23 -51 -70 -18 -55 -14
-101 12 -130 13 -14 16 -33 12 -93 -3 -41 -7 -77 -10 -80 -4 -4 -169 24 -176
29 -1 2 18 25 43 52 64 69 89 119 89 179 0 59 -30 117 -73 139 -38 20 -134 36
-217 36 l-73 0 15 38 c9 20 44 96 79 167 35 72 81 175 103 230 22 55 72 170
110 255 80 181 96 239 89 325 -9 121 -74 195 -192 220 -216 46 -478 -25 -734
-198 l-74 -50 45 59 c48 64 207 300 270 402 31 50 36 67 28 82 -11 21 -105 78
-220 133 -128 61 -127 58 -30 107 93 47 214 121 225 140 15 25 -5 20 -59 -15
-105 -67 -276 -154 -291 -149 -8 4 -15 15 -15 27 0 39 -60 313 -94 425 -18 61
-30 112 -27 112 17 0 69 -36 129 -88 37 -32 103 -88 147 -123 44 -36 106 -86
138 -112 32 -26 63 -47 69 -47 22 0 -55 71 -231 214 -115 93 -169 142 -157
144 9 2 45 -22 84 -56 139 -122 360 -266 579 -375 72 -37 133 -72 135 -78 5
-14 139 105 329 292 122 121 224 247 324 401 56 87 45 84 165 46 157 -50 253
-118 291 -206 15 -34 22 -43 29 -32 5 8 3 24 -6 41 -21 42 -17 55 21 79 60 37
116 111 179 240 65 131 134 257 192 350 51 81 45 130 -16 130 -43 0 -175 -134
-212 -215 -7 -15 -14 -21 -18 -15 -4 6 -24 14 -46 17 -24 4 -49 17 -66 35 -14
15 -33 28 -42 28 -22 0 -20 25 3 58 61 86 132 219 129 242 -3 23 -7 25 -53 24
-48 -1 -50 -2 -121 -78 -87 -95 -167 -226 -197 -322 -21 -69 -23 -71 -62 -82
-32 -8 -46 -20 -63 -50 -26 -47 -29 -116 -8 -167 l15 -35 -39 0 c-42 0 -53
-12 -200 -216 -54 -76 -503 -534 -522 -534 -16 0 -347 185 -419 234 -194 131
-343 246 -332 257 5 3 31 14 59 23 58 19 151 97 209 176 33 45 41 50 75 50 30
0 44 6 64 31 14 17 27 38 28 47 0 9 2 24 2 32 1 13 25 15 149 15 97 0 147 4
147 11 0 26 -115 104 -154 104 -40 0 -18 21 52 49 109 44 222 121 331 226 85
83 191 208 191 228 0 10 -45 2 -124 -24 -67 -22 -79 -20 -40 6 43 28 189 172
235 231 40 52 41 55 23 69 -10 8 -28 13 -39 11 -57 -13 -384 -18 -434 -7 -98
21 -95 26 52 107 170 92 251 149 356 249 85 81 201 218 201 237 0 15 -85 1
-260 -44 -124 -31 -180 -40 -281 -45 -172 -8 -181 -3 -88 51 115 69 353 230
357 243 2 7 -15 14 -45 19 -74 11 -224 56 -373 113 -187 71 -326 95 -515 88
-177 -7 -238 -23 -318 -84 -33 -26 -55 -49 -49 -51 7 -2 31 12 53 32 63 54
152 71 364 71 201 -1 221 -4 502 -96 117 -38 246 -74 287 -81 l75 -12 -72 -41
c-39 -23 -124 -75 -187 -116 -63 -41 -134 -86 -157 -99 -24 -13 -43 -27 -43
-31 0 -31 156 -47 282 -30 48 6 159 29 248 51 89 22 166 40 172 40 18 0 -113
-140 -212 -227 -58 -50 -146 -113 -225 -159 -71 -42 -149 -89 -173 -105 -23
-16 -47 -29 -53 -29 -25 0 0 -37 41 -60 44 -24 49 -25 235 -24 105 1 212 6
240 12 27 6 52 9 54 6 8 -7 -309 -314 -325 -314 -23 0 -11 -24 14 -28 11 -2
53 8 93 22 40 14 75 23 77 21 6 -6 -36 -55 -116 -139 -99 -102 -209 -179 -372
-259 l-145 -71 40 -6 c34 -5 130 -49 171 -77 7 -4 -46 -8 -117 -8 -117 0 -130
2 -149 21 -21 21 -21 22 -5 100 9 43 19 113 21 154 8 114 -11 67 -40 -100
l-25 -144 25 -29 c13 -16 24 -41 24 -58 0 -40 -40 -79 -79 -79 -24 0 -48 -18
-133 -103 -92 -93 -110 -106 -167 -125 -36 -12 -88 -22 -116 -22 -94 0 -221
50 -342 136 -60 43 -130 127 -125 150 1 7 -9 15 -23 18 -14 4 -37 24 -51 46
-32 48 -28 92 13 140 32 38 24 49 -16 21 l-29 -21 -26 77 c-14 43 -26 86 -26
95 0 13 -9 16 -43 15 -59 -2 -114 35 -150 101 -55 101 -43 214 32 293 50 51
94 54 147 7 20 -17 45 -33 57 -33 11 -1 26 -10 33 -20 13 -17 14 -13 15 31 l1
49 9 -38 c13 -55 33 -90 74 -126 20 -17 32 -31 28 -31 -3 0 6 -14 23 -31 28
-30 95 -68 122 -69 21 0 13 17 -10 24 -13 3 -34 15 -48 26 l-25 20 44 -15 c27
-9 80 -15 139 -15 118 0 174 22 192 74 8 26 19 36 50 46 21 7 45 10 54 7 36
-14 75 -259 44 -285 -35 -29 -72 -25 -121 12 -58 44 -65 45 -36 5 53 -75 122
-88 176 -34 34 34 35 39 30 85 l-6 49 35 -24 c19 -13 57 -29 84 -36 34 -9 46
-16 38 -22 -33 -23 107 4 166 33 77 36 107 73 136 169 39 123 20 211 -49 226
-28 6 -28 7 -19 53 5 30 5 78 -2 132 -16 125 -62 205 -153 265 -44 29 -64 35
-132 41 -94 8 -124 19 -82 29 31 8 31 32 1 27 -101 -13 -207 -24 -357 -37
-176 -15 -197 -18 -197 -34 0 -5 -31 -40 -69 -79 -53 -53 -81 -93 -118 -168
l-48 -97 0 -114 0 -114 -27 33 c-15 18 -28 28 -28 21 0 -8 -14 -3 -36 12 -44
30 -78 31 -121 6 -35 -22 -84 -89 -101 -140 -15 -43 -15 -128 -1 -170 6 -18 9
-34 6 -37 -12 -13 -125 116 -159 181 -37 71 -112 274 -104 282 2 3 21 -11 43
-29 80 -71 193 -143 214 -136 10 3 -10 42 -56 109 -43 64 -93 205 -112 317
-17 97 -17 98 4 127 29 41 231 393 279 485 l39 75 3 -55 c5 -81 -15 -210 -35
-232 -15 -17 -15 -20 -3 -28 22 -14 28 -12 34 8 7 22 156 170 241 240 91 75
237 168 365 232 172 86 174 86 93 -11 -61 -74 -103 -136 -103 -154 0 -17 21 0
41 33 13 20 63 83 111 139 48 56 88 104 88 107 0 10 -11 7 -119 -34z m144
-790 c-7 -12 18 -17 122 -25 109 -8 136 -17 189 -60 69 -57 103 -114 111 -184
l6 -61 -129 0 c-229 0 -413 34 -632 117 -132 50 -157 51 -157 2 0 -18 17 -37
65 -73 63 -47 64 -49 30 -43 -77 13 -169 19 -200 12 -20 -4 -38 -18 -51 -38
-27 -46 -23 -12 6 52 33 71 101 164 164 225 l50 49 118 9 c65 5 147 13 183 17
94 12 132 12 125 1z m-379 -225 c92 -41 311 -102 413 -115 52 -7 162 -13 245
-14 125 -1 151 -4 153 -16 6 -29 -103 -60 -227 -66 -118 -5 -193 8 -380 63
-100 30 -143 50 -227 106 -96 64 -82 89 23 42z m-11 -131 c127 -22 277 -63
299 -83 51 -45 -43 -288 -126 -322 -16 -7 -69 -12 -116 -13 -76 -1 -94 3 -141
27 -120 61 -152 105 -166 225 -7 65 8 161 29 174 18 13 126 9 221 -8z m817
-94 c-4 -30 -5 -31 -51 -24 -52 7 -79 24 -40 24 13 1 35 7 49 15 38 22 47 18
42 -15z m-388 -5 l29 -6 -20 -22 c-22 -24 -40 -69 -45 -107 -3 -21 -9 -25 -41
-27 -30 -2 -38 1 -33 12 18 48 27 102 21 136 l-7 38 34 -9 c18 -4 46 -11 62
-15z m310 -45 c68 -11 131 -22 140 -26 37 -14 33 -123 -7 -219 -30 -72 -58
-102 -117 -127 -39 -17 -52 -18 -110 -8 -69 11 -159 50 -181 77 -46 55 -57
209 -20 281 l21 42 75 0 c42 0 131 -9 199 -20z m1571 -200 c6 -10 -25 -69 -85
-160 -20 -30 -65 -111 -100 -180 -34 -69 -63 -126 -65 -128 -1 -1 -23 3 -48
10 l-45 12 22 62 c75 207 279 451 321 384z m305 -195 c0 -13 -26 -64 -57 -112
-31 -48 -88 -151 -126 -228 -80 -160 -134 -243 -185 -282 -66 -52 -73 -54
-110 -31 -19 12 -44 31 -56 42 -18 18 -111 62 -189 89 -62 22 -60 203 2 237
52 27 238 -57 269 -122 10 -21 10 -33 2 -48 -15 -28 -35 -21 -137 46 -46 30
-85 54 -88 54 -28 0 73 -88 142 -124 45 -22 90 -21 103 4 6 12 21 20 35 20 33
0 83 55 123 133 17 36 32 70 32 77 0 40 111 194 172 239 51 37 68 39 68 6z
m-386 -157 c14 -21 12 -29 -28 -108 l-43 -86 -36 29 -36 30 40 78 c33 67 43
79 64 79 14 0 31 -9 39 -22z m114 -66 c7 -44 -92 -202 -126 -202 -6 0 -17 12
-25 26 -12 24 -10 33 30 115 l43 90 38 -3 c30 -2 38 -7 40 -26z m-2532 -404
c48 -95 178 -269 278 -372 26 -26 46 -49 44 -51 -31 -31 -234 -192 -235 -187
-2 4 -27 143 -58 309 -30 166 -57 314 -61 328 -10 41 4 29 32 -27z m220 -100
c45 -21 89 -38 98 -38 22 0 30 -19 69 -185 48 -196 84 -402 97 -545 12 -141
13 -442 0 -569 l-9 -95 -74 -74 -75 -75 -12 56 c-11 46 -10 68 4 136 25 128
22 206 -13 266 -31 54 -68 91 -97 97 -10 2 -21 17 -26 36 -8 29 -4 41 23 85
18 29 57 92 86 141 l54 89 -22 23 c-13 14 -65 46 -116 72 -51 26 -93 49 -93
52 0 3 11 12 24 20 33 20 206 170 206 178 0 4 -52 72 -116 152 -103 127 -224
298 -224 314 0 3 30 -18 68 -46 37 -28 104 -69 148 -90z m-27 -603 c136 -70
130 -58 79 -145 -47 -83 -108 -178 -108 -169 0 3 -16 84 -35 179 -19 95 -35
175 -35 177 0 8 17 0 99 -42z m347 -54 c5 -5 74 -44 154 -86 80 -42 151 -83
159 -90 12 -12 -12 -53 -163 -280 -98 -147 -180 -264 -183 -261 -3 2 1 73 8
158 11 147 8 444 -7 531 -5 28 -3 37 8 37 8 0 18 -4 24 -9z m-16 -1681 c0 -5
-9 -15 -20 -22 -11 -7 -20 -18 -20 -25 0 -8 -13 -13 -33 -13 -32 0 -184 -67
-244 -108 -16 -10 -50 -33 -76 -50 -44 -30 -87 -42 -87 -24 0 13 211 155 288
193 61 31 107 46 185 58 4 0 7 -3 7 -9z m-14 -116 c15 -22 16 -31 5 -62 -30
-86 -95 -202 -137 -245 -50 -51 -134 -97 -177 -97 l-28 0 18 30 c9 17 42 61
71 98 58 72 79 108 69 118 -4 4 -12 2 -19 -4 -10 -7 -30 -6 -73 4 -33 7 -73
14 -90 14 l-30 1 24 17 c41 29 204 114 256 133 69 25 91 24 111 -7z m152 4
c21 -17 14 -55 -24 -131 -48 -95 -114 -188 -163 -226 -56 -44 -147 -84 -166
-74 -13 7 -5 17 37 46 112 78 194 230 197 369 1 23 6 27 34 31 37 4 67 -1 85
-15z m-1683 -43 c72 -8 234 -23 360 -35 352 -31 539 -50 553 -55 6 -2 12 -10
12 -17 0 -7 9 -19 20 -26 16 -10 27 -9 55 2 31 13 49 13 161 -4 69 -10 128
-20 130 -23 2 -2 -21 -35 -51 -73 -61 -76 -86 -137 -66 -157 7 -7 35 -11 67
-11 29 1 54 -2 54 -6 0 -4 11 -12 25 -18 19 -9 35 -8 72 3 26 8 65 15 86 15
21 0 73 14 115 31 61 25 90 45 140 95 79 80 126 173 120 239 -3 41 -1 44 17
39 11 -4 30 -16 43 -27 67 -62 -37 -276 -168 -342 -48 -24 -161 -48 -185 -38
-9 3 -15 -1 -15 -11 0 -21 40 -30 103 -22 100 14 184 64 244 147 31 44 39 49
73 49 40 0 461 -68 469 -76 2 -2 -25 -4 -61 -4 -76 0 -88 -9 -95 -74 -9 -77 0
-94 70 -126 35 -16 80 -31 100 -35 45 -9 49 -14 41 -53 -6 -29 -10 -31 -52
-34 l-46 -3 -2 -60 c-1 -33 -7 -120 -14 -193 -11 -123 -10 -135 6 -153 10 -11
30 -19 51 -19 30 0 33 -3 33 -29 0 -16 -3 -42 -6 -59 l-6 -31 -105 1 c-82 0
-108 -3 -122 -16 -16 -15 -37 -13 -273 24 -349 54 -630 89 -1133 140 -295 31
-396 47 -420 70 -12 11 -59 27 -114 39 -52 12 -95 22 -97 23 -1 2 0 15 3 29 4
24 10 27 64 33 32 4 59 10 59 14 1 4 9 88 19 187 11 104 15 189 11 201 -6 16
-21 24 -57 30 -33 6 -49 14 -51 27 -3 15 8 17 115 18 168 1 166 0 180 86 15
92 7 123 -37 145 -92 44 -322 84 -451 76 -89 -5 -99 -16 -99 -111 0 -114 31
-145 170 -172 47 -10 49 -12 43 -36 -5 -17 -12 -20 -45 -17 -31 2 -42 -2 -51
-17 -16 -29 -23 -366 -8 -393 6 -12 15 -21 19 -21 33 5 42 -3 42 -37 l0 -35
-55 6 c-30 4 -85 4 -121 0 -61 -6 -66 -9 -76 -36 -11 -33 -9 -34 -153 13 -99
32 -141 54 -231 122 -76 57 -112 108 -135 193 -45 160 0 376 101 486 111 121
262 155 555 122z m1807 -2 c25 -23 22 -65 -9 -131 -55 -112 -170 -208 -275
-229 l-33 -6 38 33 c75 65 178 235 193 318 5 28 10 32 37 32 17 0 39 -7 49
-17z m-1602 -383 c0 -11 -4 -20 -10 -20 -5 0 -10 9 -10 20 0 11 5 20 10 20 6
0 10 -9 10 -20z m73 -65 c20 -4 37 -12 37 -19 0 -6 -7 -83 -15 -171 -8 -88
-15 -164 -15 -169 0 -9 -145 -1 -186 10 -22 6 -23 10 -16 299 l2 71 78 -7 c42
-4 94 -10 115 -14z m2244 -187 c-3 -7 -5 -2 -5 12 0 14 2 19 5 13 2 -7 2 -19
0 -25z m89 -80 c-3 -17 -9 -83 -12 -147 -3 -64 -7 -131 -10 -148 -5 -33 -5
-33 -63 -33 -32 0 -73 3 -91 6 l-32 7 8 146 c4 80 7 157 6 170 -1 14 2 27 7
30 5 3 50 5 101 3 l92 -3 -6 -31z m-2447 -145 c0 -10 -4 -27 -9 -38 -7 -16 -9
-13 -9 18 -1 20 4 37 9 37 6 0 10 -8 9 -17z m2338 -285 c-2 -13 -4 -3 -4 22 0
25 2 35 4 23 2 -13 2 -33 0 -45z m63 -337 c0 -69 -6 -66 165 -63 l155 3 0 -78
c0 -43 3 -95 6 -115 l7 -38 -165 0 c-91 0 -178 5 -195 10 -35 13 -69 68 -79
128 -6 40 -5 42 31 63 39 23 55 52 55 100 0 16 5 29 10 29 6 0 10 -18 10 -39z"/>
<path d="M2975 6780 c10 -16 86 -33 97 -22 7 7 -3 14 -28 21 -49 14 -77 14
-69 1z"/>
<path d="M2850 6745 c23 -28 140 -57 253 -62 77 -4 107 -3 107 6 0 6 -4 11 -9
11 -55 0 -225 25 -274 40 -78 25 -94 26 -77 5z"/>
<path d="M2383 6563 c-7 -3 -13 -13 -13 -23 0 -23 51 -38 240 -70 74 -13 155
-29 179 -36 50 -15 61 -12 61 16 0 24 -85 52 -246 80 -62 11 -125 22 -139 25
-54 11 -70 13 -82 8z"/>
<path d="M2357 6483 c-15 -24 6 -53 42 -59 60 -10 262 -53 329 -70 59 -15 64
-15 82 1 19 18 18 41 -3 43 -16 1 -384 78 -418 87 -15 4 -29 3 -32 -2z"/>
<path d="M2360 6380 c0 -25 25 -35 150 -61 52 -11 111 -26 130 -33 19 -8 60
-17 91 -20 45 -6 58 -4 62 7 12 32 -21 46 -205 86 -218 48 -228 49 -228 21z"/>
<path d="M2394 6291 c11 -11 25 -21 33 -21 8 0 32 -9 53 -20 52 -26 182 -44
235 -32 40 9 40 9 14 20 -33 13 -241 60 -305 69 l-49 6 19 -22z"/>
<path d="M3044 6415 c-11 -27 8 -35 122 -50 60 -8 144 -19 187 -25 84 -11 97
-9 97 19 0 14 -10 20 -42 24 -24 4 -86 13 -138 21 -189 28 -219 30 -226 11z"/>
<path d="M3030 6331 c0 -23 9 -26 125 -41 50 -6 119 -15 155 -20 119 -17 125
-17 125 4 0 13 -8 20 -25 22 -14 1 -96 14 -182 28 -190 31 -198 32 -198 7z"/>
<path d="M3032 6259 c3 -25 0 -24 261 -63 110 -16 127 -15 127 8 0 16 -111 39
-295 61 -27 4 -61 9 -73 12 -20 5 -23 2 -20 -18z"/>
<path d="M3040 6201 c0 -33 131 -71 257 -74 72 -2 88 1 88 13 0 11 -25 19
-100 31 -55 9 -124 21 -153 27 -63 14 -92 15 -92 3z"/>
<path d="M3140 5996 c37 -20 70 -29 70 -18 0 12 -46 32 -73 32 -21 -1 -21 -1
3 -14z"/>
<path d="M2580 5785 c-8 -2 -59 -11 -113 -21 -81 -14 -102 -22 -118 -42 -24
-31 -24 -54 -1 -74 13 -13 56 -17 202 -22 235 -9 421 -22 582 -42 105 -14 131
-14 143 -4 61 51 -92 138 -335 190 -52 12 -328 23 -360 15z m130 -80 l0 -55
-42 0 c-24 0 -59 3 -80 6 -34 6 -36 8 -40 50 -4 51 -3 51 95 53 l67 1 0 -55z
m150 49 l35 -6 -3 -54 c-4 -61 1 -58 -101 -48 l-61 7 0 53 0 54 48 0 c26 0 63
-3 82 -6z m-330 -49 l0 -45 -80 0 c-64 0 -82 3 -87 16 -12 32 53 62 155 73 8
1 12 -14 12 -44z m483 24 c75 -12 83 -20 72 -75 l-6 -36 -72 7 c-40 3 -75 10
-78 13 -4 4 -9 31 -11 60 -4 45 -3 52 11 48 9 -3 47 -10 84 -17z m181 -67 c96
-51 99 -67 10 -58 -101 10 -100 10 -96 56 2 22 7 40 11 40 3 0 37 -17 75 -38z"/>
<path d="M4719 5158 c-88 -137 -340 -424 -462 -527 -188 -157 -564 -371 -652
-371 -31 0 -161 23 -289 51 -49 10 -91 17 -94 15 -10 -10 59 -35 138 -50 272
-51 245 -52 398 13 l93 40 137 -103 c75 -57 187 -134 247 -172 129 -81 512
-275 775 -393 602 -271 895 -466 1186 -791 100 -112 154 -149 93 -65 -43 59
-271 295 -285 295 -7 0 -14 6 -17 13 -7 19 -159 137 -243 189 -38 23 -71 46
-74 50 -9 12 -188 115 -300 172 -138 70 -502 239 -582 270 -115 44 -405 198
-583 311 -92 57 -325 226 -325 234 0 3 48 34 108 69 215 127 312 205 483 392
115 125 172 194 225 274 21 33 47 71 56 85 10 14 18 32 18 39 0 25 -19 10 -51
-40z"/>
<path d="M4000 2913 c0 -14 35 -23 90 -23 25 0 110 -7 188 -17 l144 -16 -8
-71 c-12 -98 -11 -189 1 -193 11 -3 46 169 45 224 0 22 5 33 18 35 34 7 -29
30 -122 44 -127 19 -356 30 -356 17z"/>
<path d="M5075 2823 c-55 -2 -104 -9 -110 -15 -7 -7 20 -9 95 -4 58 4 195 9
305 12 110 3 201 7 204 10 5 4 -322 2 -494 -3z"/>
<path d="M4816 2581 c-7 -11 48 -19 174 -25 l95 -5 -90 19 c-97 21 -171 25
-179 11z"/>
<path d="M6470 2541 c0 -7 34 -69 76 -138 102 -168 214 -399 253 -521 43 -135
59 -215 72 -366 9 -106 8 -130 -3 -137 -19 -12 -78 -11 -293 7 -332 28 -625 9
-940 -61 -138 -31 -333 -84 -355 -96 -34 -19 60 -7 170 21 140 37 364 83 485
101 94 14 373 17 747 9 113 -3 209 -2 214 2 4 4 2 76 -4 160 -12 164 -49 322
-112 488 -42 107 -149 316 -211 409 -27 41 -49 77 -49 81 0 3 -11 17 -25 30
-14 13 -25 18 -25 11z"/>
<path d="M5405 2520 c3 -5 17 -10 31 -10 13 0 24 5 24 10 0 6 -14 10 -31 10
-17 0 -28 -4 -24 -10z"/>
<path d="M3116 1568 c21 -29 61 -85 89 -124 193 -267 340 -603 371 -845 9 -73
23 -97 24 -41 0 56 -33 218 -66 325 -56 178 -213 458 -365 649 -76 95 -115
121 -53 36z"/>
<path d="M5225 1354 c-71 -7 -218 -27 -326 -45 -180 -29 -196 -33 -192 -50 6
-23 8 -23 118 0 143 31 697 88 875 91 13 0 13 1 0 10 -21 14 -320 10 -475 -6z"/>
<path d="M4668 1233 c6 -2 18 -2 25 0 6 3 1 5 -13 5 -14 0 -19 -2 -12 -5z"/>
<path d="M4628 1223 c7 -3 16 -2 19 1 4 3 -2 6 -13 5 -11 0 -14 -3 -6 -6z"/>
<path d="M4832 990 c9 -6 66 -17 125 -24 206 -27 206 -27 200 -12 -3 8 -1 17
6 19 32 12 -15 18 -174 23 -127 4 -169 2 -157 -6z"/>
<path d="M4630 936 c0 -17 319 -123 465 -155 89 -20 314 -46 322 -37 6 6 -77
31 -176 52 -45 10 -85 24 -88 31 -3 7 -16 13 -30 13 -49 0 -271 50 -356 80
-94 33 -137 38 -137 16z"/>
<path d="M4294 841 c-277 -143 -453 -250 -633 -387 -24 -19 -49 -31 -55 -27
-7 4 -7 1 1 -7 10 -11 28 -1 95 47 46 33 108 74 138 91 30 17 107 60 170 97
63 36 207 112 320 168 181 90 201 103 169 103 -28 1 -78 -20 -205 -85z"/>
<path d="M3591 464 c0 -11 3 -14 6 -6 3 7 2 16 -1 19 -3 4 -6 -2 -5 -13z"/>
</g>
</svg>
